<?xml version="1.0" encoding="utf-8"?>
<!-- Generator: Adobe Illustrator 16.0.0, SVG Export Plug-In . SVG Version: 6.00 Build 0)  -->
<!DOCTYPE svg PUBLIC "-//W3C//DTD SVG 1.1//EN" "http://www.w3.org/Graphics/SVG/1.1/DTD/svg11.dtd">
<svg version="1.1"
	 id="Layer_1" xmlns:inkscape="http://www.inkscape.org/namespaces/inkscape" xmlns:sodipodi="http://sodipodi.sourceforge.net/DTD/sodipodi-0.dtd" xmlns:svg="http://www.w3.org/2000/svg" xmlns:rdf="http://www.w3.org/1999/02/22-rdf-syntax-ns#" xmlns:cc="http://creativecommons.org/ns#" xmlns:dc="http://purl.org/dc/elements/1.1/" sodipodi:docname="octocat-logo.svg" inkscape:version="0.92.2 (5c3e80d, 2017-08-06)"
	 xmlns="http://www.w3.org/2000/svg" xmlns:xlink="http://www.w3.org/1999/xlink" x="0px" y="0px" width="36px" height="36px"
	 viewBox="0 0 36 36" enable-background="new 0 0 36 36" xml:space="preserve">
<sodipodi:namedview  borderopacity="1" pagecolor="#ffffff" bordercolor="#666666" objecttolerance="10" gridtolerance="10" guidetolerance="10" showgrid="false" fit-margin-top="0" fit-margin-left="0" inkscape:zoom="7.9999999" inkscape:cx="-10.44459" inkscape:cy="22.061679" id="namedview13" inkscape:current-layer="Layer_1" inkscape:window-maximized="1" inkscape:window-y="-11" inkscape:window-x="-11" fit-margin-bottom="0" fit-margin-right="0" inkscape:window-height="986" inkscape:window-width="1920" inkscape:pageshadow="2" inkscape:pageopacity="0">
	</sodipodi:namedview>
<g>
	<path fill="none" stroke="#E02128" stroke-miterlimit="10" d="M16.808,20.793c2.623,0-1.12,10.329,0.825,11.602
		c1.83,1.195,4.596,0.754,6.608,0.674c1.746-0.071,4.783-0.011,5.669-2.203c0.89-2.211-1.116-4.708-2.278-6.207
		c-1.504-1.937-2.834-3.874-4.104-6.018c-1.298-2.189-2.216-4.554-4.111-6.02"/>
	<path fill="none" stroke="#F17D23" stroke-miterlimit="10" d="M16.808,11.957c-1.791,0.655-3.497,5.997-5.738,7.377
		c-2.146,1.323-3.544,4.397-3.544,4.397s-1.33,1.926-0.622,2.53c0.706,0.604,5.571-4.567,7.719-4.567"/>
	<path fill="none" stroke="#EEB8D2" stroke-miterlimit="10" d="M19.417,12.621c2.21,1.243,7.015,2.773,9.22,4.041
		c2.18,1.254,6.654,4.233,6.349,4.672c-0.306,0.437-4.307-0.988-6.646-1.998c-1.963-0.848-3.984-1.324-5.903-2.317
		c-1.838-0.951-2.76,0.75-5.629,3.774"/>
	<path fill="none" stroke="#FFCB06" stroke-miterlimit="10" d="M16.808,11.957c-0.43,0-1.843-3.266-2.134-4.061
		c-0.993-2.714-3.661-5.427-4.294-5.79C9.746,1.744,8.73,1.196,6.898,2.596c-1.831,1.399-1.873,2.32-1.908,2.362
		C3.764,6.477,3.56,9.66,3.353,11.59c-0.306,2.838-0.294,5.718,0.001,8.558c0.31,2.981,1.021,8.305,3.733,9.778
		c1.9,1.031,5.841-1.35,7.367-8.085"/>
	<path fill="none" stroke="#02ABD9" stroke-miterlimit="10" d="M14.455,21.842c0.764-0.186,2.452-1.049,2.881-1.049"/>
	<path fill="none" stroke="#55B648" stroke-miterlimit="10" d="M19.818,12.621c0,0-1.048,0.306-1.752,0
		c-0.706-0.307-1.259-0.664-1.259-0.664"/>
	<path fill="#231F20" d="M17.188,11.956c0,0.271-0.17,0.489-0.38,0.489s-0.381-0.217-0.381-0.489c0-0.268,0.17-0.487,0.381-0.487
		S17.188,11.688,17.188,11.956"/>
	<path fill="#231F20" d="M20.18,12.808c0,0.27-0.171,0.488-0.383,0.488c-0.21,0-0.38-0.218-0.38-0.488c0-0.27,0.17-0.488,0.38-0.488
		C20.009,12.32,20.18,12.538,20.18,12.808"/>
	<path fill="#231F20" d="M17.411,20.793c0,0.268-0.171,0.485-0.383,0.485c-0.211,0-0.381-0.218-0.381-0.485
		c0-0.271,0.17-0.489,0.381-0.489C17.24,20.304,17.411,20.522,17.411,20.793"/>
	<path fill="#231F20" d="M14.837,21.842c0,0.27-0.172,0.487-0.383,0.487c-0.21,0-0.381-0.218-0.381-0.487
		c0-0.271,0.17-0.487,0.381-0.487C14.666,21.354,14.837,21.571,14.837,21.842"/>
	<line fill="none" stroke="#231F20" stroke-miterlimit="10" x1="12.132" y1="19.165" x2="11.114" y2="19.328"/>
	<line fill="none" stroke="#231F20" stroke-miterlimit="10" x1="11.114" y1="19.328" x2="11.078" y2="18.152"/>
	<line fill="none" stroke="#231F20" stroke-miterlimit="10" x1="24.475" y1="32.426" x2="25.237" y2="33.213"/>
	<line fill="none" stroke="#231F20" stroke-miterlimit="10" x1="25.237" y1="33.213" x2="24.475" y2="34"/>
	<line fill="none" stroke="#231F20" stroke-miterlimit="10" x1="12.909" y1="6.23" x2="13.142" y2="5.082"/>
	<line fill="none" stroke="#231F20" stroke-miterlimit="10" x1="13.144" y1="5.082" x2="14.113" y2="5.471"/>
	<line fill="none" stroke="#231F20" stroke-miterlimit="10" x1="18.607" y1="13.467" x2="17.96" y2="12.555"/>
	<line fill="none" stroke="#231F20" stroke-miterlimit="10" x1="17.96" y1="12.555" x2="18.821" y2="11.912"/>
	<line fill="none" stroke="#231F20" stroke-miterlimit="10" x1="15.347" y1="20.627" x2="16.109" y2="21.415"/>
	<line fill="none" stroke="#231F20" stroke-miterlimit="10" x1="16.111" y1="21.415" x2="15.347" y2="22.202"/>
	<line fill="none" stroke="#231F20" stroke-miterlimit="10" x1="30.078" y1="19.404" x2="30.476" y2="20.49"/>
	<line fill="none" stroke="#231F20" stroke-miterlimit="10" x1="30.476" y1="20.49" x2="29.493" y2="20.829"/>
</g>
</svg>
